<?xml version="1.0" standalone="no"?>
<!DOCTYPE svg PUBLIC "-//W3C//DTD SVG 20010904//EN"
 "http://www.w3.org/TR/2001/REC-SVG-20010904/DTD/svg10.dtd">
<svg version="1.0" xmlns="http://www.w3.org/2000/svg"
 width="500.000000pt" height="500.000000pt" viewBox="0 0 500.000000 500.000000"
 preserveAspectRatio="xMidYMid meet">

<g transform="translate(0.000000,500.000000) scale(0.100000,-0.100000)"
fill="#000000" stroke="none">
<path d="M1210 2854 c0 -3 38 -69 85 -148 l85 -142 0 -87 0 -87 65 0 65 0 0
83 0 82 63 105 c34 58 75 126 90 153 l28 47 -63 0 -63 0 -53 -90 c-29 -50 -56
-90 -60 -90 -4 0 -31 41 -60 90 l-53 90 -64 0 c-36 0 -65 -3 -65 -6z"/>
<path d="M1926 2833 c-11 -24 -114 -256 -177 -400 l-18 -43 65 0 65 0 19 45
19 45 101 0 101 0 19 -45 19 -45 66 0 c37 0 65 4 63 8 -1 5 -48 111 -103 235
l-100 227 -62 0 c-58 0 -63 -2 -77 -27z m102 -165 c11 -29 23 -61 27 -70 6
-16 0 -18 -55 -18 -55 0 -61 2 -55 18 4 9 16 41 27 70 12 28 24 52 28 52 4 0
16 -24 28 -52z"/>
<path d="M2370 2625 l0 -235 180 0 180 0 0 50 0 49 -112 3 -113 3 -3 183 -2
182 -65 0 -65 0 0 -235z"/>
<path d="M2840 2625 l0 -235 175 0 175 0 0 50 0 50 -110 0 -110 0 0 185 0 185
-65 0 -65 0 0 -235z"/>
<path d="M3445 2828 c-7 -18 -54 -124 -103 -235 l-90 -203 67 0 67 0 15 43 16
42 104 3 105 3 15 -43 16 -43 66 -3 c37 -2 67 0 67 3 0 3 -46 109 -101 235
l-102 230 -64 0 c-63 0 -64 -1 -78 -32z m130 -228 c6 -18 2 -20 -54 -20 l-61
0 21 53 c12 28 25 63 31 77 9 24 11 22 33 -33 13 -31 27 -66 30 -77z"/>
<path d="M1217 2223 c-4 -3 -7 -30 -7 -60 l0 -53 745 0 745 0 0 60 0 60 -738
0 c-406 0 -742 -3 -745 -7z"/>
<path d="M2910 2180 l0 -50 38 2 c36 1 36 1 5 5 -43 6 -47 40 -5 46 l27 4 -27
2 c-40 2 -36 29 5 34 31 4 31 4 -5 5 l-38 2 0 -50z"/>
<path d="M3053 2180 c11 -27 24 -50 28 -50 3 0 16 23 27 50 25 61 19 67 -8 8
l-19 -43 -18 42 c-10 24 -21 43 -25 43 -3 0 3 -22 15 -50z"/>
<path d="M3190 2180 l0 -50 38 2 c36 1 36 1 5 5 -43 6 -47 40 -5 46 l27 4 -27
2 c-40 2 -36 29 5 34 31 4 31 4 -5 5 l-38 2 0 -50z"/>
<path d="M3322 2178 c1 -44 2 -46 5 -15 2 20 7 37 10 37 3 0 21 -17 39 -37
l33 -38 -1 55 c-1 52 -1 53 -7 15 l-6 -40 -30 37 c-16 21 -33 38 -37 38 -5 0
-7 -24 -6 -52z"/>
<path d="M3482 2223 c12 -3 18 -18 21 -51 l3 -47 2 47 c2 40 5 47 25 51 12 2
2 4 -23 4 -25 1 -37 -1 -28 -4z"/>
<path d="M3607 2223 c-16 -15 -5 -35 23 -45 37 -12 34 -33 -3 -33 -15 1 -23
-3 -18 -8 14 -14 56 -4 59 15 2 11 -8 23 -27 33 -40 20 -39 33 2 38 l32 4 -31
1 c-17 1 -34 -1 -37 -5z"/>
</g>
</svg>
